<svg
      xmlns="http://www.w3.org/2000/svg"
      width="32px"
      height="32px"
      viewBox="0 0 32 32"
      version="1.1"
    >
      <g id="surface1">
        <path d="M 26.640625 18.90625 L 26.640625 12.371094 C 26.640625 7.949219 23.898438 4.1875 20.039062 2.609375 L 20.074219 2.609375 C 19.398438 1.082031 17.867188 0 16.082031 0 C 14.296875 0 12.765625 1.082031 12.089844 2.609375 L 12.125 2.609375 C 8.265625 4.1875 5.523438 7.949219 5.523438 12.371094 L 5.523438 18.90625 C 3.328125 18.925781 1.558594 20.722656 1.558594 22.9375 L 1.558594 23.804688 C 1.558594 26.027344 3.355469 27.835938 5.582031 27.835938 L 26.585938 27.835938 C 28.808594 27.835938 30.605469 26.027344 30.605469 23.804688 L 30.605469 22.9375 C 30.605469 20.722656 28.835938 18.925781 26.640625 18.90625 Z M 26.640625 18.90625 " />
        <path d="M 12.222656 32.164062 C 14.003906 32.164062 15.539062 31.082031 16.210938 29.554688 L 8.226562 29.554688 C 8.902344 31.085938 10.4375 32.164062 12.222656 32.164062 Z M 12.222656 32.164062 " />
      </g>
    </svg>