<svg
    xmlns="http://www.w3.org/2000/svg"
    width="32px"
    height="32px"
    viewBox="0 0 32 32"
    version="1.1"
>
    <g id="surface1">
    <path d="M 2.519531 0.414062 C 1.207031 0.414062 0.140625 1.480469 0.140625 2.792969 C 0.140625 4.105469 1.207031 5.171875 2.519531 5.171875 C 3.832031 5.171875 4.898438 4.105469 4.898438 2.792969 C 4.898438 1.480469 3.832031 0.414062 2.519531 0.414062 Z M 2.519531 0.414062 " />
    <path d="M 10.304688 5.585938 L 29.0625 5.585938 C 30.605469 5.585938 31.859375 4.335938 31.859375 2.792969 C 31.859375 1.25 30.605469 0 29.0625 0 L 10.304688 0 C 8.761719 0 7.511719 1.25 7.511719 2.792969 C 7.511719 4.335938 8.761719 5.585938 10.304688 5.585938 Z M 10.304688 5.585938 " />
    <path d="M 2.519531 9.21875 C 1.207031 9.21875 0.140625 10.285156 0.140625 11.597656 C 0.140625 12.910156 1.207031 13.976562 2.519531 13.976562 C 3.832031 13.976562 4.898438 12.910156 4.898438 11.597656 C 4.898438 10.285156 3.832031 9.21875 2.519531 9.21875 Z M 2.519531 9.21875 " />
    <path d="M 29.0625 8.804688 L 10.304688 8.804688 C 8.761719 8.804688 7.511719 10.054688 7.511719 11.597656 C 7.511719 13.140625 8.761719 14.390625 10.304688 14.390625 L 29.0625 14.390625 C 30.605469 14.390625 31.859375 13.140625 31.859375 11.597656 C 31.859375 10.054688 30.605469 8.804688 29.0625 8.804688 Z M 29.0625 8.804688 " />
    <path d="M 2.519531 18.023438 C 1.207031 18.023438 0.140625 19.089844 0.140625 20.402344 C 0.140625 21.714844 1.207031 22.78125 2.519531 22.78125 C 3.832031 22.78125 4.898438 21.714844 4.898438 20.402344 C 4.898438 19.089844 3.832031 18.023438 2.519531 18.023438 Z M 2.519531 18.023438 " />
    <path d="M 29.0625 17.609375 L 10.304688 17.609375 C 8.761719 17.609375 7.511719 18.859375 7.511719 20.402344 C 7.511719 21.945312 8.761719 23.195312 10.304688 23.195312 L 29.0625 23.195312 C 30.605469 23.195312 31.859375 21.945312 31.859375 20.402344 C 31.859375 18.859375 30.605469 17.609375 29.0625 17.609375 Z M 29.0625 17.609375 " />
    <path d="M 2.519531 26.828125 C 1.207031 26.828125 0.140625 27.894531 0.140625 29.207031 C 0.140625 30.519531 1.207031 31.585938 2.519531 31.585938 C 3.832031 31.585938 4.898438 30.519531 4.898438 29.207031 C 4.898438 27.894531 3.832031 26.828125 2.519531 26.828125 Z M 2.519531 26.828125 " />
    <path d="M 29.0625 26.414062 L 10.304688 26.414062 C 8.761719 26.414062 7.511719 27.664062 7.511719 29.207031 C 7.511719 30.75 8.761719 32 10.304688 32 L 29.0625 32 C 30.605469 32 31.859375 30.75 31.859375 29.207031 C 31.859375 27.664062 30.605469 26.414062 29.0625 26.414062 Z M 29.0625 26.414062 " />
    </g>
</svg>