<svg
    xmlns="http://www.w3.org/2000/svg"
    width="32px"
    height="32px"
    viewBox="0 0 32 32"
    version="1.1"
>
    <g id="surface1">
    <path d="M 31.929688 12.285156 C 31.757812 11.757812 31.300781 11.375 30.753906 11.292969 L 21.460938 9.945312 L 17.304688 1.523438 C 17.058594 1.027344 16.554688 0.710938 16 0.710938 C 15.445312 0.710938 14.941406 1.027344 14.695312 1.523438 L 10.539062 9.945312 L 1.246094 11.292969 C 0.699219 11.375 0.242188 11.757812 0.0703125 12.285156 C -0.101562 12.8125 0.0429688 13.390625 0.441406 13.777344 L 7.164062 20.332031 L 5.578125 29.585938 C 5.484375 30.132812 5.707031 30.683594 6.15625 31.011719 C 6.410156 31.195312 6.707031 31.289062 7.011719 31.289062 C 7.242188 31.289062 7.472656 31.234375 7.6875 31.121094 L 16 26.75 L 24.3125 31.121094 C 24.527344 31.234375 24.761719 31.289062 24.992188 31.289062 C 25.796875 31.289062 26.445312 30.636719 26.445312 29.832031 C 26.445312 29.722656 26.433594 29.613281 26.410156 29.507812 L 24.835938 20.332031 L 31.5625 13.777344 C 31.957031 13.390625 32.101562 12.8125 31.929688 12.285156 Z M 31.929688 12.285156 " />
    </g>
</svg>